<?xml version="1.0" encoding="UTF-8" standalone="no"?>
<!DOCTYPE svg PUBLIC "-//W3C//DTD SVG 1.1//EN" "http://www.w3.org/Graphics/SVG/1.1/DTD/svg11.dtd">
<svg width="100%" height="100%" viewBox="0 0 709 709" version="1.1" xmlns="http://www.w3.org/2000/svg" xmlns:xlink="http://www.w3.org/1999/xlink" xml:space="preserve" xmlns:serif="http://www.serif.com/" style="fill-rule:evenodd;clip-rule:evenodd;stroke-linecap:round;stroke-linejoin:round;stroke-miterlimit:10;">
    <g id="Disk" transform="matrix(4.0315,0,0,4.0315,662.942,102.657)">
        <path id="path7" d="M-33.929,-0.882L-42.798,-0.882L-42.798,47.081C-42.798,49.522 -44.152,52.118 -46.659,52.118L-122.777,52.118C-125.264,52.118 -127.798,49.576 -127.798,47.081L-127.798,-0.882L-134.68,-0.882C-136.66,-0.882 -138.798,0.265 -138.798,2.118L-138.798,119.042C-138.798,120.946 -136.604,123.118 -134.68,123.118L-127.798,123.118L-127.798,65.118L-127.798,64.618C-127.798,64.342 -127.574,64.118 -127.298,64.118L-26.298,64.118C-26.022,64.118 -25.798,64.342 -25.798,64.618L-25.798,123.118L-17.755,123.118C-15.904,123.118 -14.798,121.046 -14.798,119.042L-14.798,18.292L-33.929,-0.882Z" style="fill:rgb(255,133,152);fill-rule:nonzero;"/>
        <rect id="rect9" x="-126.798" y="64.118" width="100" height="59" style="fill:rgb(255,192,169);"/>
        <path id="path11" d="M-126.798,-0.882L-126.798,47.081C-126.798,49.005 -124.694,51.118 -122.777,51.118L-46.66,51.118C-44.801,51.118 -43.798,49.038 -43.798,47.081L-43.798,-0.882L-126.798,-0.882Z" style="fill:rgb(232,227,227);fill-rule:nonzero;"/>
        <rect id="rect13" x="-69.798" y="7.118" width="18" height="36" style="fill:rgb(255,192,169);"/>
        <g id="g17" transform="matrix(1,0,0,1,-140.798,-2.88248)">
            <path id="path19" d="M107.076,1.5L6.118,1.5C3.918,1.5 1.5,2.801 1.5,5L1.5,121.924C1.5,124.125 3.918,126.5 6.118,126.5L123.043,126.5C125.242,126.5 126.5,124.125 126.5,121.924L126.5,20.967L107.076,1.5Z" style="fill:none;stroke:rgb(51,51,51);stroke-width:2px;"/>
            <path id="polyline21" d="M109,66.5L114.5,66.5L114.5,126" style="fill:none;stroke:rgb(51,51,51);stroke-width:2px;"/>
            <path id="polyline23" d="M13.5,126L13.5,66.5L101,66.5" style="fill:none;stroke:rgb(51,51,51);stroke-width:2px;"/>
            <path id="path25" d="M13.5,2L13.5,49.963C13.5,52.162 15.821,54.5 18.021,54.5L94.138,54.5C96.338,54.5 97.499,52.162 97.499,49.963L97.499,2" style="fill:none;stroke:rgb(51,51,51);stroke-width:2px;"/>
            <path id="path27" d="M35.5,2L35.5,49.963C35.5,52.162 37.918,54.5 40.118,54.5" style="fill:none;stroke:rgb(51,51,51);stroke-width:2px;"/>
            <path id="polyline29" d="M80,9.5L70.5,9.5L70.5,46.5L89.5,46.5L89.5,9.5L88,9.5" style="fill:none;stroke:rgb(51,51,51);stroke-width:2px;"/>
            <path id="line31" d="M26,80.5L103,80.5" style="fill:none;stroke:rgb(51,51,51);stroke-width:2px;"/>
            <path id="line33" d="M26,96.5L103,96.5" style="fill:none;stroke:rgb(51,51,51);stroke-width:2px;"/>
            <path id="line35" d="M26,112.5L103,112.5" style="fill:none;stroke:rgb(51,51,51);stroke-width:2px;"/>
        </g>
    </g>
    <g id="Gem" transform="matrix(4.82835,0,0,4.82835,124.935,52.8129)">
        <g id="polygon7" transform="matrix(0.658508,0,0,0.658508,30.8066,46.5859)">
            <path d="M43.753,36.486L43.753,36.807L25.085,54.855L25.207,55L63.604,100.509L63.746,100.343L63.974,100.08L102.739,55L102.909,54.802L84.038,36.557L83.836,36.36L83.836,36.043L83.543,35.759L44.504,35.759L43.753,36.486Z" style="fill:rgb(86,168,204);fill-rule:nonzero;"/>
        </g>
        <g id="polygon9" transform="matrix(0.658508,0,0,0.658508,30.8066,46.5859)">
            <path d="M44.504,35.759L43.753,36.486L43.753,55.25L83.836,55.25L83.836,36.043L83.543,35.759L44.504,35.759Z" style="fill:rgb(84,164,199);fill-rule:nonzero;"/>
        </g>
        <g id="polygon11" transform="matrix(0.658508,0,0,0.658508,30.8772,46.5859)">
            <path d="M46.685,55L35.694,55L25.207,55L63.604,100.509L63.746,100.343L46.685,55Z" style="fill:white;fill-opacity:0.176471;fill-rule:nonzero;"/>
        </g>
        <g id="polygon13" transform="matrix(0.658508,0,0,0.658508,30.8066,46.5859)">
            <path d="M92.354,55L81.262,55L63.974,100.08L102.739,55L92.354,55Z" style="fill-opacity:0.129412;fill-rule:nonzero;"/>
        </g>
        <g id="polygon15" transform="matrix(0.658508,0,0,0.658508,30.8066,46.737)">
            <path d="M46.685,55L63.746,100.343L63.974,100.08L81.262,55L64.12,55L64.178,54.944L63.872,54.944L63.93,55L46.685,55Z" style="fill-opacity:0.0235294;fill-rule:nonzero;"/>
        </g>
        <g id="polygon17" transform="matrix(0.658508,0,0,0.658508,30.8066,46.5859)">
            <path d="M35.694,55L46.685,55L46.663,54.944L63.872,54.944L44.433,36.148L44.011,36.557L35.694,55Z" style="fill-opacity:0.0392157;fill-rule:nonzero;"/>
        </g>
        <g id="polygon19" transform="matrix(0.658508,0,0,0.658508,30.8066,46.5859)">
            <path d="M35.694,55L44.011,36.557L25.085,54.855L25.207,55L35.694,55Z" style="fill:white;fill-opacity:0.133333;fill-rule:nonzero;"/>
        </g>
        <g id="polygon21" transform="matrix(0.658508,0,0,0.658508,30.8066,46.5859)">
            <path d="M83.618,36.148L64.178,54.944L81.284,54.944L81.262,55L92.354,55L84.038,36.557L83.618,36.148Z" style="fill-opacity:0.0745098;fill-rule:nonzero;"/>
        </g>
        <g id="polygon23" transform="matrix(0.658508,0,0,0.658508,30.8066,46.5859)">
            <path d="M102.909,54.802L84.038,36.557L92.354,55L102.739,55L102.909,54.802Z" style="fill-opacity:0.211765;fill-rule:nonzero;"/>
        </g>
    </g>
</svg>
